<svg xmlns="http://www.w3.org/2000/svg" viewBox="0 0 99.6 122.88">
  <path
    d="M71.02 79.82c2.19 10.75.35 21.37-9.33 31.64-7.21 7.59-15.79 11.41-25.8 11.41-9.98 0-18.54-3.82-25.75-11.41C4.3 105.29 1.32 98.98.35 92.57h9.49l2.21-5.12 11.45 18.13 9.62-22.69 10.45 21.23 9.7-11.48h3.82v-5.76h-6.48l-5.76 6.82-12.11-24.6-10.23 24.14-11.4-18.05-5.02 11.62H0C.5 66.52 18.45 45.52 27.9 25.6 42.65-6.37 29.99-8.19 41 18.94a37.18 37.18 0 0 0-8.36 23.55c0 10.31 4.18 19.65 10.94 26.41 6.76 6.76 16.09 10.94 26.41 10.94.34 0 .69-.01 1.03-.02Zm1.34-39.95c1.57.85 2.64 2.51 2.64 4.43 0 2.77-2.25 5.02-5.02 5.02a5.02 5.02 0 0 1-2.37-9.45V29.24a2.38 2.38 0 1 1 4.76 0v10.63h-.01Z"
    fill="currentColor"
    fill-rule="evenodd"
  />
  <path
    d="M85.04 16.85c2.15 1.32 4.12 2.93 5.89 4.69 5.36 5.36 8.68 12.77 8.68 20.95s-3.31 15.59-8.68 20.95c-5.36 5.36-12.77 8.68-20.95 8.68S54.4 68.8 49.03 63.44c-5.36-5.36-8.68-12.77-8.68-20.95s3.31-15.58 8.68-20.94c1.84-1.84 3.91-3.52 6.18-4.87 8.63-5.12 21.27-5.07 29.83.17Zm-12.5.91v3.64h-5.12v-3.64c-5.85.6-11.09 3.22-15.02 7.15a24.85 24.85 0 0 0-7.17 15.15h3.53v5.12h-3.5c.62 5.79 3.23 10.99 7.14 14.9 3.93 3.93 9.18 6.56 15.02 7.15v-3.39h5.12v3.39c5.85-.6 11.09-3.22 15.03-7.15 3.9-3.9 6.52-9.1 7.14-14.9h-3.5v-5.12h3.53c-.57-5.9-3.2-11.19-7.16-15.15-3.95-3.93-9.2-6.55-15.04-7.15Z"
    fill="currentColor"
  />
</svg>
