<svg xmlns="http://www.w3.org/2000/svg" viewBox="0 0 122.88 107.39">
  <path
    d="M60.83 17.18c8-8.35 13.62-15.57 26-17 23.17-2.64 44.44 21.08 32.74 44.43-2.19 4.37-5.86 9.27-10.24 14.32v-.61h-30l-1.06 1.1-4.77 4.94-9.88-19-3.28-6.3-3.14 6.4-9 18.16-8.82-12.87-3.12-4.52-7 11.4H11C4.74 49.1.38 39.89 0 29.94-.63 11.74 13.73.08 30.25.3c14.76.19 21 7.53 30.58 16.88Zm42.48 48.34L102 66.93c-8.23 8.52-17.34 16.87-23.72 23.2l-17.4 17.26-14.42-13.84c-8.76-8.44-20.32-18-29.71-28.72h16.44l1.06-1.72 2.32-3.76 9.23 13.39 3.47 5L52 72.29 60.48 55l8.89 17.1 2.3 4.43L75.14 73l7.2-7.42Z"
    fill="currentColor"
    fill-rule="evenodd"
  />
</svg>
